<svg width="32" height="32" viewBox="0 0 32 32" fill="none" xmlns="http://www.w3.org/2000/svg">
<path d="M10.6666 29.3333C11.403 29.3333 12 28.7364 12 28C12 27.2636 11.403 26.6667 10.6666 26.6667C9.93027 26.6667 9.33331 27.2636 9.33331 28C9.33331 28.7364 9.93027 29.3333 10.6666 29.3333Z" stroke="white" stroke-width="2.66667" stroke-linecap="round" stroke-linejoin="round"/>
<path d="M25.3333 29.3333C26.0697 29.3333 26.6667 28.7364 26.6667 28C26.6667 27.2636 26.0697 26.6667 25.3333 26.6667C24.597 26.6667 24 27.2636 24 28C24 28.7364 24.597 29.3333 25.3333 29.3333Z" stroke="white" stroke-width="2.66667" stroke-linecap="round" stroke-linejoin="round"/>
<path d="M2.73334 2.73333H5.4L8.94667 19.2933C9.07678 19.8998 9.41423 20.442 9.90095 20.8265C10.3877 21.211 10.9932 21.4138 11.6133 21.4H24.6533C25.2602 21.399 25.8486 21.1911 26.3214 20.8104C26.7941 20.4298 27.1229 19.8994 27.2533 19.3067L29.4533 9.4H6.82667" stroke="white" stroke-width="2.66667" stroke-linecap="round" stroke-linejoin="round"/>
</svg>
