<svg width="16" height="16" viewBox="0 0 16 16" fill="none" xmlns="http://www.w3.org/2000/svg">
<g clip-path="url(#clip0_1_381)">
<path d="M2.66667 1.33334V14.6667L4 14L5.33333 14.6667L6.66667 14L8 14.6667L9.33333 14L10.6667 14.6667L12 14L13.3333 14.6667V1.33334L12 2.00001L10.6667 1.33334L9.33333 2.00001L8 1.33334L6.66667 2.00001L5.33333 1.33334L4 2.00001L2.66667 1.33334Z" stroke="#0F172A" stroke-width="1.33333" stroke-linecap="round" stroke-linejoin="round"/>
<path d="M10.6667 5.33334H6.66667C6.31305 5.33334 5.97391 5.47382 5.72386 5.72387C5.47381 5.97392 5.33333 6.31305 5.33333 6.66668C5.33333 7.0203 5.47381 7.35944 5.72386 7.60949C5.97391 7.85953 6.31305 8.00001 6.66667 8.00001H9.33333C9.68696 8.00001 10.0261 8.14049 10.2761 8.39053C10.5262 8.64058 10.6667 8.97972 10.6667 9.33334C10.6667 9.68697 10.5262 10.0261 10.2761 10.2762C10.0261 10.5262 9.68696 10.6667 9.33333 10.6667H5.33333" stroke="#0F172A" stroke-width="1.33333" stroke-linecap="round" stroke-linejoin="round"/>
<path d="M8 11.6667V4.33334" stroke="#0F172A" stroke-width="1.33333" stroke-linecap="round" stroke-linejoin="round"/>
</g>
<defs>
<clipPath id="clip0_1_381">
<rect width="16" height="16" fill="white"/>
</clipPath>
</defs>
</svg>
