<svg width="16" height="16" viewBox="0 0 16 16" fill="none" xmlns="http://www.w3.org/2000/svg">
<path d="M9.33333 12V3.99999C9.33333 3.64637 9.19286 3.30723 8.94281 3.05718C8.69276 2.80713 8.35362 2.66666 8 2.66666H2.66667C2.31305 2.66666 1.97391 2.80713 1.72386 3.05718C1.47381 3.30723 1.33333 3.64637 1.33333 3.99999V11.3333C1.33333 11.5101 1.40357 11.6797 1.5286 11.8047C1.65362 11.9298 1.82319 12 2 12H3.33333" stroke="#0F172A" stroke-width="1.33333" stroke-linecap="round" stroke-linejoin="round"/>
<path d="M10 12H6" stroke="#0F172A" stroke-width="1.33333" stroke-linecap="round" stroke-linejoin="round"/>
<path d="M12.6667 12H14C14.1768 12 14.3464 11.9298 14.4714 11.8047C14.5964 11.6797 14.6667 11.5102 14.6667 11.3333V8.90001C14.6664 8.74872 14.6147 8.60202 14.52 8.48401L12.2 5.58401C12.1376 5.50593 12.0585 5.44286 11.9685 5.39948C11.8785 5.35609 11.7799 5.33349 11.68 5.33334H9.33333" stroke="#0F172A" stroke-width="1.33333" stroke-linecap="round" stroke-linejoin="round"/>
<path d="M11.3333 13.3333C12.0697 13.3333 12.6667 12.7364 12.6667 12C12.6667 11.2636 12.0697 10.6667 11.3333 10.6667C10.597 10.6667 10 11.2636 10 12C10 12.7364 10.597 13.3333 11.3333 13.3333Z" stroke="#0F172A" stroke-width="1.33333" stroke-linecap="round" stroke-linejoin="round"/>
<path d="M4.66667 13.3333C5.40305 13.3333 6 12.7364 6 12C6 11.2636 5.40305 10.6667 4.66667 10.6667C3.93029 10.6667 3.33333 11.2636 3.33333 12C3.33333 12.7364 3.93029 13.3333 4.66667 13.3333Z" stroke="#0F172A" stroke-width="1.33333" stroke-linecap="round" stroke-linejoin="round"/>
</svg>
