<svg width="40" height="40" viewBox="0 0 40 40" fill="none" xmlns="http://www.w3.org/2000/svg">
<path d="M23.3333 29.9998V9.99984C23.3333 9.11578 22.9822 8.26794 22.357 7.64281C21.7319 7.01769 20.8841 6.6665 20 6.6665H6.66668C5.78262 6.6665 4.93478 7.01769 4.30965 7.64281C3.68453 8.26794 3.33334 9.11578 3.33334 9.99984V28.3332C3.33334 28.7752 3.50894 29.1991 3.8215 29.5117C4.13406 29.8242 4.55798 29.9998 5.00001 29.9998H8.33334" stroke="#0EA5E9" stroke-width="3.33333" stroke-linecap="round" stroke-linejoin="round"/>
<path d="M25 30H15" stroke="#0EA5E9" stroke-width="3.33333" stroke-linecap="round" stroke-linejoin="round"/>
<path d="M31.6667 30.0002H35C35.442 30.0002 35.866 29.8246 36.1785 29.512C36.4911 29.1994 36.6667 28.7755 36.6667 28.3335V22.2502C36.666 21.8719 36.5367 21.5052 36.3 21.2102L30.5 13.9602C30.3441 13.765 30.1464 13.6073 29.9214 13.4988C29.6963 13.3904 29.4498 13.3339 29.2 13.3335H23.3333" stroke="#0EA5E9" stroke-width="3.33333" stroke-linecap="round" stroke-linejoin="round"/>
<path d="M28.3333 33.3332C30.1743 33.3332 31.6667 31.8408 31.6667 29.9998C31.6667 28.1589 30.1743 26.6665 28.3333 26.6665C26.4924 26.6665 25 28.1589 25 29.9998C25 31.8408 26.4924 33.3332 28.3333 33.3332Z" stroke="#0EA5E9" stroke-width="3.33333" stroke-linecap="round" stroke-linejoin="round"/>
<path d="M11.6667 33.3332C13.5076 33.3332 15 31.8408 15 29.9998C15 28.1589 13.5076 26.6665 11.6667 26.6665C9.82573 26.6665 8.33334 28.1589 8.33334 29.9998C8.33334 31.8408 9.82573 33.3332 11.6667 33.3332Z" stroke="#0EA5E9" stroke-width="3.33333" stroke-linecap="round" stroke-linejoin="round"/>
</svg>
