<svg width="40" height="40" viewBox="0 0 40 40" fill="none" xmlns="http://www.w3.org/2000/svg">
<path d="M26.6667 35V31.6667C26.6667 29.8986 25.9643 28.2029 24.7141 26.9526C23.4638 25.7024 21.7681 25 20 25H10C8.2319 25 6.53621 25.7024 5.28597 26.9526C4.03572 28.2029 3.33334 29.8986 3.33334 31.6667V35" stroke="#0EA5E9" stroke-width="3.33333" stroke-linecap="round" stroke-linejoin="round"/>
<path d="M26.6667 5.21332C28.0962 5.58393 29.3623 6.41876 30.2661 7.58676C31.1699 8.75475 31.6603 10.1898 31.6603 11.6667C31.6603 13.1435 31.1699 14.5785 30.2661 15.7465C29.3623 16.9145 28.0962 17.7494 26.6667 18.12" stroke="#0EA5E9" stroke-width="3.33333" stroke-linecap="round" stroke-linejoin="round"/>
<path d="M36.6667 35V31.6667C36.6656 30.1896 36.1739 28.7546 35.2689 27.5872C34.3639 26.4198 33.0969 25.586 31.6667 25.2167" stroke="#0EA5E9" stroke-width="3.33333" stroke-linecap="round" stroke-linejoin="round"/>
<path d="M15 18.3333C18.6819 18.3333 21.6667 15.3486 21.6667 11.6667C21.6667 7.98477 18.6819 5 15 5C11.3181 5 8.33334 7.98477 8.33334 11.6667C8.33334 15.3486 11.3181 18.3333 15 18.3333Z" stroke="#0EA5E9" stroke-width="3.33333" stroke-linecap="round" stroke-linejoin="round"/>
</svg>
