<svg width="32" height="32" viewBox="0 0 32 32" fill="none" xmlns="http://www.w3.org/2000/svg">
<path d="M21.3333 13.3334C21.3333 14.7479 20.7714 16.1044 19.7712 17.1046C18.771 18.1048 17.4144 18.6667 16 18.6667C14.5855 18.6667 13.2289 18.1048 12.2287 17.1046C11.2285 16.1044 10.6666 14.7479 10.6666 13.3334" stroke="#0EA5E9" stroke-width="2.66667" stroke-linecap="round" stroke-linejoin="round"/>
<path d="M4.13733 8.04529H27.8627" stroke="#0EA5E9" stroke-width="2.66667" stroke-linecap="round" stroke-linejoin="round"/>
<path d="M4.53333 7.28929C4.18714 7.75088 4 8.3123 4 8.88929V26.6666C4 27.3739 4.28095 28.0521 4.78105 28.5522C5.28115 29.0523 5.95942 29.3333 6.66667 29.3333H25.3333C26.0406 29.3333 26.7189 29.0523 27.219 28.5522C27.719 28.0521 28 27.3739 28 26.6666V8.88929C28 8.3123 27.8129 7.75088 27.4667 7.28929L24.8 3.73329C24.5516 3.4021 24.2295 3.13329 23.8592 2.94815C23.489 2.76301 23.0807 2.66663 22.6667 2.66663H9.33333C8.91935 2.66663 8.51104 2.76301 8.14076 2.94815C7.77048 3.13329 7.44839 3.4021 7.2 3.73329L4.53333 7.28929Z" stroke="#0EA5E9" stroke-width="2.66667" stroke-linecap="round" stroke-linejoin="round"/>
</svg>
