<svg width="16" height="16" viewBox="0 0 16 16" fill="none" xmlns="http://www.w3.org/2000/svg">
<path d="M5.33335 14.6666C5.70154 14.6666 6.00002 14.3682 6.00002 14C6.00002 13.6318 5.70154 13.3333 5.33335 13.3333C4.96516 13.3333 4.66669 13.6318 4.66669 14C4.66669 14.3682 4.96516 14.6666 5.33335 14.6666Z" stroke="#0EA5E9" stroke-width="1.33333" stroke-linecap="round" stroke-linejoin="round"/>
<path d="M12.6667 14.6666C13.0349 14.6666 13.3333 14.3682 13.3333 14C13.3333 13.6318 13.0349 13.3333 12.6667 13.3333C12.2985 13.3333 12 13.6318 12 14C12 14.3682 12.2985 14.6666 12.6667 14.6666Z" stroke="#0EA5E9" stroke-width="1.33333" stroke-linecap="round" stroke-linejoin="round"/>
<path d="M1.36664 1.36664H2.69997L4.4733 9.64664C4.53836 9.94988 4.70709 10.221 4.95045 10.4132C5.19381 10.6055 5.49658 10.7069 5.80664 10.7H12.3266C12.6301 10.6995 12.9243 10.5955 13.1607 10.4052C13.397 10.2149 13.5614 9.94966 13.6266 9.6533L14.7266 4.69997H3.4133" stroke="#0EA5E9" stroke-width="1.33333" stroke-linecap="round" stroke-linejoin="round"/>
</svg>
