<svg width="16" height="16" viewBox="0 0 16 16" fill="none" xmlns="http://www.w3.org/2000/svg">
<g clip-path="url(#clip0_1_336)">
<path d="M8.39067 1.72399C8.14068 1.47393 7.80159 1.3334 7.448 1.33333H2.66667C2.31305 1.33333 1.97391 1.4738 1.72386 1.72385C1.47381 1.9739 1.33333 2.31304 1.33333 2.66666V7.448C1.33341 7.80159 1.47393 8.14067 1.724 8.39066L7.52667 14.1933C7.82968 14.4944 8.2395 14.6634 8.66667 14.6634C9.09384 14.6634 9.50366 14.4944 9.80667 14.1933L14.1933 9.80666C14.4944 9.50365 14.6634 9.09383 14.6634 8.66666C14.6634 8.23949 14.4944 7.82967 14.1933 7.52666L8.39067 1.72399Z" stroke="#0F172A" stroke-width="1.33333" stroke-linecap="round" stroke-linejoin="round"/>
<path d="M5 5.33334C5.18409 5.33334 5.33333 5.1841 5.33333 5.00001C5.33333 4.81591 5.18409 4.66667 5 4.66667C4.8159 4.66667 4.66667 4.81591 4.66667 5.00001C4.66667 5.1841 4.8159 5.33334 5 5.33334Z" fill="#0F172A" stroke="#0F172A" stroke-width="1.33333" stroke-linecap="round" stroke-linejoin="round"/>
</g>
<defs>
<clipPath id="clip0_1_336">
<rect width="16" height="16" fill="white"/>
</clipPath>
</defs>
</svg>
