<svg width="16" height="16" viewBox="0 0 16 16" fill="none" xmlns="http://www.w3.org/2000/svg">
<g clip-path="url(#clip0_69_2720)">
<path d="M8 14.6665V8.6665" stroke="#0F172A" stroke-width="1.33333" stroke-linecap="round" stroke-linejoin="round"/>
<path d="M10.1133 1.47313C10.2794 1.38029 10.4664 1.33154 10.6567 1.33154C10.8469 1.33154 11.034 1.38029 11.2 1.47313L14 3.04646C14.1983 3.15859 14.3633 3.32137 14.4781 3.51814C14.5929 3.71492 14.6533 3.93865 14.6533 4.16646C14.6533 4.39427 14.5929 4.618 14.4781 4.81477C14.3633 5.01155 14.1983 5.17432 14 5.28646L5.88 9.85979C5.71347 9.95478 5.52506 10.0047 5.33334 10.0047C5.14161 10.0047 4.9532 9.95478 4.78667 9.85979L2 8.28646C1.8017 8.17432 1.63673 8.01155 1.52194 7.81477C1.40715 7.618 1.34667 7.39427 1.34667 7.16646C1.34667 6.93865 1.40715 6.71492 1.52194 6.51814C1.63673 6.32137 1.8017 6.15859 2 6.04646L10.1133 1.47313Z" stroke="#0F172A" stroke-width="1.33333" stroke-linecap="round" stroke-linejoin="round"/>
<path d="M13.3333 8.6665V11.2465C13.3336 11.4981 13.2647 11.745 13.1342 11.9602C13.0037 12.1753 12.8166 12.3505 12.5933 12.4665L8.59333 14.5198C8.41006 14.6151 8.20655 14.6648 8 14.6648C7.79345 14.6648 7.58994 14.6151 7.40666 14.5198L3.40666 12.4665C3.18339 12.3505 2.99628 12.1753 2.86578 11.9602C2.73528 11.745 2.6664 11.4981 2.66666 11.2465V8.6665" stroke="#0F172A" stroke-width="1.33333" stroke-linecap="round" stroke-linejoin="round"/>
<path d="M14 8.28683C14.1983 8.17469 14.3633 8.01192 14.4781 7.81514C14.5929 7.61836 14.6533 7.39464 14.6533 7.16683C14.6533 6.93902 14.5929 6.71529 14.4781 6.51851C14.3633 6.32174 14.1983 6.15896 14 6.04683L5.88667 1.46683C5.72126 1.3721 5.53395 1.32227 5.34334 1.32227C5.15272 1.32227 4.96541 1.3721 4.8 1.46683L2 3.04683C1.8017 3.15896 1.63673 3.32174 1.52194 3.51851C1.40715 3.71529 1.34667 3.93902 1.34667 4.16683C1.34667 4.39464 1.40715 4.61836 1.52194 4.81514C1.63673 5.01192 1.8017 5.17469 2 5.28683L10.12 9.86016C10.2853 9.95515 10.4727 10.0051 10.6633 10.0051C10.854 10.0051 11.0413 9.95515 11.2067 9.86016L14 8.28683Z" stroke="#0F172A" stroke-width="1.33333" stroke-linecap="round" stroke-linejoin="round"/>
</g>
<defs>
<clipPath id="clip0_69_2720">
<rect width="16" height="16" fill="white"/>
</clipPath>
</defs>
</svg>
