<svg width="16" height="16" viewBox="0 0 16 16" fill="none" xmlns="http://www.w3.org/2000/svg">
<g clip-path="url(#clip0_1_405)">
<path d="M6.44733 2.75735C6.48406 2.37091 6.66355 2.01205 6.95073 1.75087C7.23791 1.4897 7.61215 1.34497 8.00033 1.34497C8.38851 1.34497 8.76275 1.4897 9.04993 1.75087C9.33711 2.01205 9.5166 2.37091 9.55333 2.75735C9.57541 3.00699 9.65731 3.24763 9.79209 3.45891C9.92687 3.67019 10.1106 3.84589 10.3276 3.97114C10.5447 4.09638 10.7888 4.16749 11.0391 4.17843C11.2895 4.18938 11.5388 4.13984 11.766 4.03402C12.1187 3.87387 12.5184 3.8507 12.8873 3.96901C13.2562 4.08732 13.5679 4.33865 13.7617 4.67409C13.9555 5.00953 14.0175 5.40507 13.9358 5.78373C13.854 6.1624 13.6343 6.4971 13.3193 6.72269C13.1143 6.86658 12.9468 7.05776 12.8313 7.28004C12.7157 7.50231 12.6554 7.74916 12.6554 7.99969C12.6554 8.25021 12.7157 8.49706 12.8313 8.71934C12.9468 8.94161 13.1143 9.13279 13.3193 9.27669C13.6343 9.50228 13.854 9.83697 13.9358 10.2156C14.0175 10.5943 13.9555 10.9898 13.7617 11.3253C13.5679 11.6607 13.2562 11.9121 12.8873 12.0304C12.5184 12.1487 12.1187 12.1255 11.766 11.9654C11.5388 11.8595 11.2895 11.81 11.0391 11.8209C10.7888 11.8319 10.5447 11.903 10.3276 12.0282C10.1106 12.1535 9.92687 12.3292 9.79209 12.5405C9.65731 12.7517 9.57541 12.9924 9.55333 13.242C9.5166 13.6285 9.33711 13.9873 9.04993 14.2485C8.76275 14.5097 8.38851 14.6544 8.00033 14.6544C7.61215 14.6544 7.23791 14.5097 6.95073 14.2485C6.66355 13.9873 6.48406 13.6285 6.44733 13.242C6.42529 12.9923 6.3434 12.7516 6.20858 12.5402C6.07375 12.3288 5.88998 12.1531 5.67282 12.0278C5.45566 11.9026 5.21151 11.8315 4.96105 11.8206C4.71059 11.8097 4.4612 11.8594 4.234 11.9654C3.88126 12.1255 3.48155 12.1487 3.11267 12.0304C2.74378 11.9121 2.43211 11.6607 2.23832 11.3253C2.04453 10.9898 1.98248 10.5943 2.06424 10.2156C2.146 9.83697 2.36573 9.50228 2.68067 9.27669C2.88575 9.13279 3.05315 8.94161 3.16872 8.71934C3.2843 8.49706 3.34463 8.25021 3.34463 7.99969C3.34463 7.74916 3.2843 7.50231 3.16872 7.28004C3.05315 7.05776 2.88575 6.86658 2.68067 6.72269C2.36618 6.49698 2.14683 6.16242 2.06527 5.78401C1.9837 5.4056 2.04574 5.01038 2.23932 4.67516C2.43291 4.33994 2.74421 4.08867 3.11273 3.97018C3.48124 3.85169 3.88065 3.87444 4.23333 4.03402C4.4605 4.13984 4.70983 4.18938 4.9602 4.17843C5.21057 4.16749 5.45462 4.09638 5.67169 3.97114C5.88876 3.84589 6.07246 3.67019 6.20724 3.45891C6.34202 3.24763 6.42392 3.00699 6.446 2.75735" stroke="#0F172A" stroke-width="1.33333" stroke-linecap="round" stroke-linejoin="round"/>
<path d="M8 10C9.10457 10 10 9.10457 10 8C10 6.89543 9.10457 6 8 6C6.89543 6 6 6.89543 6 8C6 9.10457 6.89543 10 8 10Z" stroke="#0F172A" stroke-width="1.33333" stroke-linecap="round" stroke-linejoin="round"/>
</g>
<defs>
<clipPath id="clip0_1_405">
<rect width="16" height="16" fill="white"/>
</clipPath>
</defs>
</svg>
