<svg width="16" height="16" viewBox="0 0 16 16" fill="none" xmlns="http://www.w3.org/2000/svg">
<path d="M12 14V6.66667C12 6.48986 11.9298 6.32029 11.8047 6.19526C11.6797 6.07024 11.5101 6 11.3333 6H4.66667C4.48986 6 4.32029 6.07024 4.19526 6.19526C4.07024 6.32029 4 6.48986 4 6.66667V14" stroke="#0F172A" stroke-width="1.33333" stroke-linecap="round" stroke-linejoin="round"/>
<path d="M14.6667 12.6667C14.6667 13.0203 14.5262 13.3594 14.2761 13.6095C14.0261 13.8595 13.687 14 13.3333 14H2.66667C2.31305 14 1.97391 13.8595 1.72386 13.6095C1.47381 13.3594 1.33333 13.0203 1.33333 12.6667V5.33333C1.33319 5.08224 1.40394 4.83622 1.53745 4.62357C1.67096 4.41092 1.8618 4.2403 2.088 4.13133L7.388 1.48199C7.57728 1.38414 7.78725 1.33307 8.00033 1.33307C8.21341 1.33307 8.42339 1.38414 8.61267 1.48199L13.9113 4.13133C14.1377 4.2402 14.3286 4.41079 14.4623 4.62344C14.5959 4.8361 14.6668 5.08217 14.6667 5.33333V12.6667Z" stroke="#0F172A" stroke-width="1.33333" stroke-linecap="round" stroke-linejoin="round"/>
<path d="M4 8.66666H12" stroke="#0F172A" stroke-width="1.33333" stroke-linecap="round" stroke-linejoin="round"/>
<path d="M4 11.3333H12" stroke="#0F172A" stroke-width="1.33333" stroke-linecap="round" stroke-linejoin="round"/>
</svg>
