<svg width="16" height="16" viewBox="0 0 16 16" fill="none" xmlns="http://www.w3.org/2000/svg">
<g clip-path="url(#clip0_78_971)">
<path d="M1.37468 8.23175C1.31912 8.08207 1.31912 7.91743 1.37468 7.76775C1.91581 6.45565 2.83435 5.33378 4.01386 4.54435C5.19336 3.75492 6.58071 3.3335 8.00001 3.3335C9.41932 3.3335 10.8067 3.75492 11.9862 4.54435C13.1657 5.33378 14.0842 6.45565 14.6253 7.76775C14.6809 7.91743 14.6809 8.08207 14.6253 8.23175C14.0842 9.54385 13.1657 10.6657 11.9862 11.4552C10.8067 12.2446 9.41932 12.666 8.00001 12.666C6.58071 12.666 5.19336 12.2446 4.01386 11.4552C2.83435 10.6657 1.91581 9.54385 1.37468 8.23175Z" stroke="#64748B" stroke-width="1.33333" stroke-linecap="round" stroke-linejoin="round"/>
<path d="M8 10C9.10457 10 10 9.10457 10 8C10 6.89543 9.10457 6 8 6C6.89543 6 6 6.89543 6 8C6 9.10457 6.89543 10 8 10Z" stroke="#64748B" stroke-width="1.33333" stroke-linecap="round" stroke-linejoin="round"/>
</g>
<defs>
<clipPath id="clip0_78_971">
<rect width="16" height="16" fill="white"/>
</clipPath>
</defs>
</svg>
